#!OML:ASF F:\VICON\USERDATA\INSTALL\rory3\rory3.ASF
:FULLY-SPECIFIED
:DEGREES
159
root -0.12981038497448383 17.617399986990378 66.67606848884341 2.117404474790032 -2.477966793253904 -2.7871852771622567
lfemur -11.684157491036563 -2.306641100115397 -18.619569503223165
ltibia 37.80720773863574
lfoot 17.040488664414895 -8.277584642186456
ltoes -4.04843011453244
rfemur -19.232371442588086 5.848673888308204 27.837200676468196
rtibia 38.0421343558957
rfoot 6.336854171919075 -7.033088071018291
rtoes 8.44520971185834
lowerback 12.280884341342853 0.2536155388078415 1.6399369581725418
upperback -0.741018829268146 0.7062607706433185 2.335126263274809
thorax -7.727570279387346 0.3740165091638479 2.18227118194712
lowerneck -17.55571610003234 -2.9921710960009733 -3.674823373579432
upperneck 18.745926335828493 -3.522227573894224 2.48517899155589
head 8.81311848160449 -1.6163884789626748 1.0771302533259945
lclavicle -2.2616064560341283e-15 6.847798887461086e-16
lhumerus -42.489305563694174 -6.073744362317106 89.36032921848032
lradius 63.52283688634698
lwrist 17.91085981577003
lhand -25.092174027587525 12.32622637638634
lfingers 7.125019999999999
lthumb 1.211947344290031 41.8990889589755
rclavicle -2.2596314307743156e-15 6.861828903467569e-16
rhumerus -38.25415822166139 -4.722284299391836 -88.01932767337622
rradius 59.13697246092488
rwrist -0.27514898866038195
rhand -15.834893271097153 30.743912130456284
rfingers 7.125019999999999
rthumb 9.220525576441085 1.5284956062305943
160
root -0.12723727481573555 17.638384724508356 66.77886749880786 2.2696375259686277 -2.660849939399002 -2.9944524515935917
lfemur -11.965107317813844 -2.374243541214311 -18.449446718574073
ltibia 37.69230376469357
lfoot 16.545149237238533 -7.967977748460029
ltoes -4.711156382471765
rfemur -18.376233771690416 6.012615078186453 28.07943523706687
rtibia 36.43626363269811
rfoot 5.939606664736521 -6.6151293379115765
rtoes 6.879588617995186
lowerback 12.216540057068437 0.3054918801162661 1.895702177651267
upperback -0.800482387306442 0.8105575913147922 2.396464199566785
thorax -7.703026633338544 0.4295232013999163 1.96102490307007
lowerneck -17.57016408267311 -3.012472258835083 -3.6819143418272122
upperneck 18.762506298763082 -3.543135064013761 2.467295666288845
head 8.830032416538108 -1.6296751502651912 1.0698194131053818
lclavicle -2.2613551418911542e-15 6.8495856980276e-16
lhumerus -41.90736258256362 -6.519210086832933 89.31359615028713
lradius 64.65317611898425
lwrist 17.91528336248438
lhand -25.064529137306806 12.183339570726892
lfingers 7.125019999999999
lthumb 1.2970763905358917 41.695179235067876
rclavicle -2.2592022945352103e-15 6.864837748148297e-16
rhumerus -38.295974315382274 -4.546480492110609 -87.91826621231432
rradius 59.1047915390545
rwrist -0.12204454396429076
rhand -15.808295912004747 30.72815790752543
rfingers 7.125019999999999
rthumb 9.21667271606724 1.5258521099115958
161
root -0.11953814533828251 17.651442784583427 66.68948969383769 2.3108909102599045 -2.6911820734058107 -2.7365858329286965
lfemur -12.164773424268425 -2.635961241882267 -18.75490654760239
ltibia 37.13763076646364
lfoot 16.030574989850248 -7.685145490295296
ltoes -5.056328833396831
rfemur -17.566207344380878 5.914306220293758 27.836578864493365
rtibia 35.3885666109204
rfoot 5.047149466654653 -5.994761563057188
rtoes 4.724314368212589
lowerback 12.15063747429446 0.33942836586004527 1.8346771556646728
upperback -0.8111652631797726 0.8572584066941193 2.3185473375553967
thorax -7.671008364314071 0.4533760229093412 1.8383551903302104
lowerneck -17.590310949360592 -3.0119824118076823 -3.6541979832276383
upperneck 18.75022486047143 -3.53954651323898 2.4384744737584656
head 8.834669701442728 -1.626030552741113 1.0587613029866747
lclavicle -2.2624168870191317e-15 6.842131726459522e-16
lhumerus -41.3991897753585 -6.985173109080225 89.29901693229658
lradius 65.81919536484396
lwrist 18.00957257955318
lhand -25.12398212401422 12.180229789493051
lfingers 7.125019999999999
lthumb 1.2831861331965129 41.78525416509095
rclavicle -2.2594202777786023e-15 6.863309819246364e-16
rhumerus -38.365142967397816 -4.505874198117893 -87.78354102048837
rradius 59.13457511373871
rwrist -0.059405405159112856
rhand -15.859365842114624 30.6803043999171
rfingers 7.125019999999999
rthumb 9.192620307308887 1.5674935075168044
162
root -0.11803094482182623 17.652984401708476 66.67746081561208 2.35472181528048 -2.699515350308795 -2.6863144984492036
lfemur -12.362541245391649 -2.856910517350981 -18.76016003978001
ltibia 36.65778574684116
lfoot 15.22877773458041 -7.2118329335706814
ltoes -5.74334373498673
rfemur -16.98388912434836 5.7820327850702045 27.647930960682505
rtibia 34.711883760840365
rfoot 3.8724177815547103 -5.426738505629507
rtoes 3.561631430614238
lowerback 12.12309329705329 0.36901191516559756 1.8969983033917257
upperback -0.8481293469902802 0.9133262457023372 2.2744486644195865
thorax -7.655454192706225 0.47491855287831025 1.6394453659245656
lowerneck -17.588283396030228 -3.0226646644602684 -3.6615128054755175
upperneck 18.705969732524704 -3.5552867772802443 2.420894037441812
head 8.831187862519954 -1.6268309885714816 1.0594552575429543
lclavicle -2.2614169521511512e-15 6.849152229133335e-16
lhumerus -41.06497000778403 -7.535688465018783 89.27635529370572
lradius 67.05383557688619
lwrist 18.242864365432276
lhand -25.27295506233491 12.19768843580382
lfingers 7.125019999999999
lthumb 1.142414450617804 41.77734605470133
rclavicle -2.259146593107669e-15 6.865228544695665e-16
rhumerus -38.4565663553993 -4.490053404510853 -87.62998369752566
rradius 59.27660416487093
rwrist -0.010189750554664201
rhand -15.900256304817297 30.66204234758235
rfingers 7.125019999999999
rthumb 9.140607399768871 1.5049053221101607
163
root -0.1200513878572045 17.653970320668307 66.79508884902316 2.303895120757682 -2.692824316654306 -2.4635373275151657
lfemur -12.444006533495397 -3.045530190611389 -18.911668884518527
ltibia 36.007011942763505
lfoot 14.42306089643901 -6.63638879769905
ltoes -5.70297929251795
rfemur -16.751749448145677 5.640178090527183 27.205196135145282
rtibia 34.65230389531326
rfoot 2.639304670534732 -4.7968853424761235
rtoes 3.346374615260827
lowerback 12.154988898496017 0.3987483060764012 1.7996939176373417
upperback -0.8239715254214064 0.9391146078819257 2.171604898312415
thorax -7.6196535408534185 0.4786778189244051 1.4980041813363987
lowerneck -17.629704878831156 -3.014853569218696 -3.634562559186066
upperneck 18.64636899012188 -3.5485040199741 2.3899193775727907
head 8.829778290623647 -1.620066676578462 1.0431831881953881
lclavicle -2.2615977449464998e-15 6.84789578834301e-16
lhumerus -40.78006765193596 -8.138070371710963 89.2632136570424
lradius 68.21374927391132
lwrist 18.283717792866582
lhand -25.406520469015778 12.39076900169301
lfingers 7.125019999999999
lthumb 0.9702834008393507 41.97787467343468
rclavicle -2.2600560021628367e-15 6.858852467328926e-16
rhumerus -38.43129001980641 -4.518823929860184 -87.48603699722433
rradius 59.42670899987782
rwrist -0.023629964836078265
rhand -15.977816308860536 30.640763754894266
rfingers 7.125019999999999
rthumb 9.084990336698247 1.5116066743668117
164
root -0.11189068559453001 17.640494953491284 66.82065476266436 2.0330341685443845 -2.3510926835575363 -2.3958165738562114
lfemur -12.516193061296867 -3.345633925239076 -18.91798526006368
ltibia 35.645992358462436
lfoot 13.63061785216116 -6.151919220532935
ltoes -5.591236872639469
rfemur -16.651852944464412 5.185969225437242 26.823768110298392
rtibia 35.27778825967423
rfoot 1.4862741516365077 -4.2987883628881685
rtoes 3.272716546289753
lowerback 12.313215533886597 0.2965923912708468 1.9110841399463114
upperback -0.6955529397988707 0.8278409607718492 2.1186493464796534
thorax -7.587212890725672 0.4103821022692641 1.3281443992600392
lowerneck -17.6466055651516 -3.0214362577222027 -3.6353141824627846
upperneck 18.588356842380207 -3.5538477965894617 2.3620612722874683
head 8.811020113904792 -1.6245797972763045 1.0344642599288374
lclavicle -2.2618908984038204e-15 6.845824653809561e-16
lhumerus -40.6101864642421 -8.670442932145466 89.28815098808268
lradius 69.25419428269606
lwrist 18.38804616003848
lhand -25.523470249557153 12.414162127179452
lfingers 7.125019999999999
lthumb 0.8164843649669413 42.00725940435617
rclavicle -2.259834620720315e-15 6.860404904862109e-16
rhumerus -38.330023289301174 -4.511353123785167 -87.35675051649982
rradius 59.51977544900114
rwrist 0.10976356535765674
rhand -16.091609307358784 30.64101414073969
rfingers 7.125019999999999
rthumb 8.949453312559735 1.5178200869973666
165
root -0.10886929030098923 17.605605399109084 67.0655102078792 1.8972730548857386 -2.2185813214843026 -2.1626493211711026
lfemur -12.5186754126074 -3.358309832701335 -19.0712834272902
ltibia 35.51417277894796
lfoot 12.568464130635517 -5.694879181301012
ltoes -6.049371020428242
rfemur -16.846885941379895 4.844515758771383 26.404145242303827
rtibia 36.504005102395865
rfoot 0.4402257489567585 -3.640720948825626
rtoes 3.9817454156167247
lowerback 12.352506667258908 0.2859330774018055 1.762848730151696
upperback -0.6039661421427986 0.7916785871477477 2.0369612338009384
thorax -7.527408543289639 0.4018332335239463 1.2909940194025518
lowerneck -17.684968768245643 -3.0144846086843287 -3.62581259340798
upperneck 18.549770099357932 -3.5549373386480556 2.3457074518040213
head 8.801349017116777 -1.6237402517318973 1.0313201617774093
lclavicle -2.2618542532143726e-15 6.846095500956255e-16
lhumerus -40.54335173746792 -9.077794064066286 89.25952184893337
lradius 70.08365425778317
lwrist 18.17590075032525
lhand -25.67080025180307 12.312016765308105
lfingers 7.125019999999999
lthumb 0.6770085244133757 41.977343551984525
rclavicle -2.2600647673737276e-15 6.858791316176679e-16
rhumerus -38.18482639137148 -4.509723201802959 -87.20293253393032
rradius 59.55817816851608
rwrist 0.26868011492971666
rhand -16.23695688514236 30.656711907114047
rfingers 7.125019999999999
rthumb 8.815496436975316 1.558835948215881
